<?xml version="1.0" encoding="utf-8"?><!DOCTYPE svg PUBLIC "-//W3C//DTD SVG 1.1//EN" "http://www.w3.org/Graphics/SVG/1.1/DTD/svg11.dtd"><svg version="1.1" xmlns="http://www.w3.org/2000/svg" xmlns:xlink="http://www.w3.org/1999/xlink" x="0px" y="0px" viewBox="0 0 100 65.72125" enable-background="new 0 0 100 52.577" xml:space="preserve"><path fill="#010101" d="M97.013,10.257C95.02,9.065,77.033,0,74.97,0c-2.923,0-7.243,0.363-12.06,0.916
	c-0.028,0.004-0.055,0.005-0.082,0.008v0.002c-13.083,1.505-29.834,4.408-32.63,5.312c-3.832,1.24-4.799,3.75-4.799,3.75v0.959
	c-1.106-0.917-2.743-0.928-3.853,0.056c-0.968,0.857-1.239,2.205-0.776,3.337L9.12,29.215c-0.106,0.137-0.204,0.277-0.301,0.42
	c-1.262,1.145-3.207,1.252-4.593,0.166c-1.551-1.213-1.825-3.463-0.61-5.014c0.422-0.538,0.975-0.916,1.575-1.137l0.042,2.403
	l5.706-7.286l-6.74,2.203c-1.083,0.397-2.071,1.084-2.832,2.057c-2.187,2.789-1.693,6.835,1.098,9.022
	c1.555,1.218,3.499,1.603,5.294,1.224c0.028,1.874,0.872,3.721,2.46,4.964c2.791,2.187,6.838,1.694,9.024-1.098
	c0.76-0.972,1.19-2.097,1.317-3.241l0.525-7.071l-5.707,7.286l2.34-0.533c-0.07,0.634-0.301,1.259-0.724,1.801
	c-1.213,1.548-3.464,1.821-5.013,0.607c-1.404-1.099-1.756-3.044-0.911-4.555c0.146-0.149,0.286-0.31,0.417-0.48l11.592-14.798
	c0.805,0.119,1.649-0.101,2.319-0.655v1.17c0,0,4.83,5.216,18.742,5.216c4.43,0,11.314,0,18.688,0c4.317,0,8.802,0,13.062,0
	c-0.703,0.541-1.168,1.386-1.168,2.343c0,1.292,0.829,2.389,1.98,2.794l3.403,18.584c0.031,0.174,0.07,0.34,0.115,0.506
	c0.018,1.704-1.19,3.23-2.925,3.547c-1.936,0.355-3.801-0.933-4.154-2.869c-0.125-0.674-0.037-1.335,0.195-1.929l1.824,1.56
	l-1.665-9.104l-2.824,6.508c-0.418,1.073-0.562,2.266-0.34,3.481c0.638,3.484,3.993,5.804,7.479,5.164
	c1.942-0.355,3.521-1.555,4.427-3.148c1.422,1.222,3.361,1.815,5.346,1.453c3.486-0.638,5.807-3.994,5.167-7.479
	c-0.224-1.213-0.778-2.281-1.552-3.137l-4.943-5.084l1.667,9.104l1.151-2.106c0.427,0.474,0.742,1.062,0.865,1.736
	c0.355,1.938-0.934,3.802-2.869,4.155c-1.754,0.321-3.441-0.705-4.011-2.339c-0.017-0.209-0.046-0.42-0.085-0.633L79.592,26.5
	c0.648-0.543,1.061-1.359,1.061-2.27c0-0.957-0.464-1.801-1.167-2.342c9.692,0,17.489,0,18.173,0c1.546,0,2.316-1.544,2.316-2.511
	C99.975,18.406,100.47,12.322,97.013,10.257z M62.829,19.173H44.141c-9.496,0-14.31-2.588-16.029-3.785v-4.683
	c0.354-0.472,1.194-1.331,2.921-1.89c2.375-0.77,18.814-3.66,31.796-5.173V19.173z M71.301,6.965c0-2.037,1.651-3.691,3.691-3.691
	c2.038,0,3.69,1.653,3.69,3.691c0,2.036-1.652,3.689-3.69,3.689C72.953,10.654,71.301,9.002,71.301,6.965z M74.992,8.977
	c-1.112,0-2.014-0.902-2.014-2.012c0-1.112,0.901-2.013,2.014-2.013c1.111,0,2.013,0.901,2.013,2.013
	C77.004,8.075,76.103,8.977,74.992,8.977z"/><text x="0" y="67.577" fill="#000000" font-size="5px" font-weight="bold" font-family="'Helvetica Neue', Helvetica, Arial-Unicode, Arial, Sans-serif">Created by Stephen Hemenway</text><text x="0" y="72.577" fill="#000000" font-size="5px" font-weight="bold" font-family="'Helvetica Neue', Helvetica, Arial-Unicode, Arial, Sans-serif">from the Noun Project</text></svg>